<?xml version="1.0" standalone="no"?>
<!DOCTYPE svg PUBLIC "-//W3C//DTD SVG 20010904//EN"
 "http://www.w3.org/TR/2001/REC-SVG-20010904/DTD/svg10.dtd">
<svg version="1.0" xmlns="http://www.w3.org/2000/svg"
 width="379.000000pt" height="133.000000pt" viewBox="0 0 379.000000 133.000000"
 preserveAspectRatio="xMidYMid meet">

<g transform="translate(0.000000,133.000000) scale(0.100000,-0.100000)"
fill="#000000" stroke="none">
<path d="M1024 1252 c-9 -9 -66 -33 -119 -53 -26 -9 -28 -12 -13 -20 21 -12
107 22 134 52 17 19 16 36 -2 21z"/>
<path d="M540 1215 c41 -14 80 -25 86 -25 7 0 11 -11 10 -24 -1 -20 -4 -22
-19 -14 -10 5 -23 7 -30 4 -7 -2 -5 -5 5 -5 9 -1 30 -13 45 -27 26 -24 32 -26
83 -19 92 13 160 12 178 -1 11 -8 23 -9 34 -3 14 7 16 6 12 -6 -4 -10 0 -15
12 -15 11 0 30 -3 44 -6 25 -5 25 -5 -2 11 -17 9 -28 24 -28 36 0 16 -5 20
-19 16 -11 -3 -30 5 -47 20 -20 17 -36 22 -58 19 -17 -3 -45 3 -68 14 -37 18
-38 18 -48 -1 -12 -22 -30 -25 -30 -6 0 8 -33 18 -92 29 -51 9 -104 19 -118
22 -14 3 9 -5 50 -19z m190 -77 c0 -9 -56 -9 -73 0 -5 2 0 10 9 17 19 13 64 1
64 -17z m150 18 c0 -2 -8 -10 -17 -17 -16 -13 -17 -12 -4 4 13 16 21 21 21 13z
m-103 -12 c-3 -3 -12 -4 -19 -1 -8 3 -5 6 6 6 11 1 17 -2 13 -5z"/>
<path d="M548 1163 c7 -3 16 -2 19 1 4 3 -2 6 -13 5 -11 0 -14 -3 -6 -6z"/>
<path d="M1747 1083 c-4 -3 -7 -11 -7 -17 0 -7 3 -7 8 0 4 7 16 14 27 17 19 5
19 5 -1 6 -11 0 -24 -2 -27 -6z"/>
<path d="M3044 911 c4 -6 31 -25 61 -43 30 -18 55 -38 55 -45 0 -17 -17 -17
-23 0 -4 9 -6 9 -6 0 -1 -7 8 -17 19 -23 11 -6 20 -17 20 -25 0 -19 11 -19 36
-1 17 13 25 12 72 -15 30 -17 59 -28 65 -26 6 2 -10 14 -37 27 -26 14 -49 27
-52 31 -5 9 98 49 125 49 10 0 25 8 32 18 12 15 12 16 -1 6 -8 -7 -49 -15 -90
-19 -41 -4 -80 -11 -87 -17 -7 -6 -16 -2 -26 12 -10 15 -16 17 -19 8 -3 -9
-15 -6 -44 13 -54 36 -107 63 -100 50z"/>
<path d="M1787 897 c-3 -8 1 -14 8 -14 7 0 11 6 8 14 -3 7 -6 13 -8 13 -2 0
-5 -6 -8 -13z"/>
<path d="M476 846 c-3 -13 1 -37 10 -55 18 -36 20 -37 28 -15 3 8 2 12 -4 9
-16 -10 -12 7 7 27 15 17 15 18 -13 19 -24 1 -25 3 -6 6 19 4 20 6 8 19 -20
19 -23 18 -30 -10z"/>
<path d="M2300 829 c0 -5 5 -7 10 -4 6 3 10 8 10 11 0 2 -4 4 -10 4 -5 0 -10
-5 -10 -11z"/>
<path d="M2275 810 c3 -5 8 -10 11 -10 2 0 4 5 4 10 0 6 -5 10 -11 10 -5 0 -7
-4 -4 -10z"/>
<path d="M3390 775 c-28 -11 -32 -15 -17 -20 9 -4 17 -13 17 -21 0 -9 -6 -11
-17 -7 -15 6 -16 5 -3 -9 13 -13 18 -13 50 0 36 15 58 30 28 19 -23 -8 -32 8
-13 23 8 7 15 16 15 21 0 12 -16 10 -60 -6z"/>
<path d="M523 723 c-1 -46 -1 -47 7 -13 5 19 5 41 1 48 -4 8 -8 -7 -8 -35z"/>
<path d="M1784 752 c3 -5 0 -13 -6 -15 -8 -3 -6 -6 5 -6 19 -1 23 14 5 25 -6
4 -8 3 -4 -4z"/>
<path d="M2332 725 c0 -16 2 -22 5 -12 2 9 2 23 0 30 -3 6 -5 -1 -5 -18z"/>
<path d="M2390 746 c0 -2 8 -10 18 -17 15 -13 16 -12 3 4 -13 16 -21 21 -21
13z"/>
<path d="M2251 724 c0 -11 3 -14 6 -6 3 7 2 16 -1 19 -3 4 -6 -2 -5 -13z"/>
<path d="M2350 728 c0 -6 6 -8 14 -5 10 4 16 -2 19 -19 4 -22 4 -22 3 2 -1 18
-7 28 -18 30 -10 1 -18 -2 -18 -8z"/>
<path d="M543 708 c2 -7 8 -24 12 -38 7 -22 6 -23 -9 -11 -14 12 -16 12 -11
-2 4 -8 15 -17 25 -20 17 -4 17 -2 3 39 -8 24 -17 44 -20 44 -3 0 -3 -6 0 -12z"/>
<path d="M630 688 c0 -6 -8 -7 -17 -4 -10 4 -14 4 -11 0 4 -4 3 -15 -3 -25 -6
-13 -6 -19 1 -19 5 0 10 -6 10 -14 0 -20 44 -46 69 -39 12 3 18 10 14 17 -4 6
-8 22 -8 36 0 14 -5 32 -10 40 -11 17 -45 23 -45 8z m33 -15 c4 -3 1 -13 -6
-21 -10 -13 -9 -14 1 -8 10 6 13 2 10 -13 -4 -28 -18 -31 -32 -6 -6 11 -15 23
-20 26 -4 4 0 12 10 18 22 12 28 13 37 4z"/>
<path d="M1275 685 c17 -8 37 -14 45 -14 8 0 0 6 -19 14 -42 19 -66 18 -26 0z"/>
<path d="M1407 689 c7 -7 15 -10 18 -7 3 3 -2 9 -12 12 -14 6 -15 5 -6 -5z"/>
<path d="M1743 693 c-35 -3 -43 -8 -43 -24 0 -10 4 -19 10 -19 5 0 7 7 4 15
-5 13 7 15 74 15 55 0 82 -4 85 -12 3 -7 6 -3 6 10 1 20 -3 22 -46 20 -27 -1
-67 -3 -90 -5z"/>
<path d="M1480 675 c-8 -9 -8 -15 -2 -15 12 0 26 19 19 26 -2 2 -10 -2 -17
-11z"/>
<path d="M1353 663 c9 -2 23 -2 30 0 6 3 -1 5 -18 5 -16 0 -22 -2 -12 -5z"/>
<path d="M1735 661 c-6 -11 9 -23 19 -14 9 9 7 23 -3 23 -6 0 -12 -4 -16 -9z"/>
<path d="M1800 659 c0 -5 5 -7 10 -4 6 3 10 8 10 11 0 2 -4 4 -10 4 -5 0 -10
-5 -10 -11z"/>
<path d="M1830 659 c0 -5 5 -7 10 -4 6 3 10 8 10 11 0 2 -4 4 -10 4 -5 0 -10
-5 -10 -11z"/>
<path d="M2341 654 c0 -11 3 -14 6 -6 3 7 2 16 -1 19 -3 4 -6 -2 -5 -13z"/>
<path d="M2390 661 c0 -5 5 -13 10 -16 6 -3 10 -2 10 4 0 5 -4 13 -10 16 -5 3
-10 2 -10 -4z"/>
<path d="M2361 644 c0 -11 3 -14 6 -6 3 7 2 16 -1 19 -3 4 -6 -2 -5 -13z"/>
<path d="M1840 629 c0 -18 14 -32 44 -43 16 -5 17 -4 6 9 -7 9 -15 13 -18 10
-3 -3 -12 5 -19 17 -9 17 -12 19 -13 7z"/>
<path d="M1865 630 c3 -5 8 -10 11 -10 2 0 4 5 4 10 0 6 -5 10 -11 10 -5 0 -7
-4 -4 -10z"/>
<path d="M1710 620 c0 -5 7 -7 16 -3 12 4 15 2 12 -8 -3 -8 -11 -13 -17 -11
-6 1 -11 -2 -11 -8 0 -14 13 -13 28 2 18 18 14 38 -8 38 -11 0 -20 -4 -20 -10z"/>
<path d="M1752 574 c-13 -80 -8 -94 37 -92 l36 1 -32 4 c-30 4 -33 7 -32 36 1
44 11 71 27 75 8 1 11 -2 7 -8 -3 -5 1 -10 9 -10 10 0 19 -16 26 -42 6 -24 12
-47 14 -53 1 -5 14 -10 29 -10 14 -1 24 2 21 6 -2 4 0 10 6 14 5 3 10 -1 10
-11 0 -12 3 -14 13 -6 7 6 23 9 35 5 13 -3 22 -1 22 6 0 10 -28 16 -59 12 -7
-2 -11 1 -8 6 3 5 -3 9 -13 9 -10 0 -16 -6 -13 -13 3 -8 -3 -13 -16 -13 -12 0
-21 5 -21 11 0 5 4 7 10 4 7 -4 7 3 0 20 -12 33 -13 45 -1 45 5 0 13 -9 16
-21 4 -11 9 -18 12 -16 9 10 -19 48 -32 43 -9 -3 -16 5 -20 25 -6 25 -11 29
-40 29 -32 0 -33 -1 -43 -56z"/>
<path d="M540 611 c0 -6 5 -13 10 -16 6 -3 10 1 10 9 0 9 -4 16 -10 16 -5 0
-10 -4 -10 -9z"/>
<path d="M2080 605 c7 -8 17 -15 22 -15 6 0 5 7 -2 15 -7 8 -17 15 -22 15 -6
0 -5 -7 2 -15z"/>
<path d="M2370 593 c0 -5 6 -15 13 -22 10 -11 10 -13 0 -7 -7 4 -13 2 -13 -3
0 -6 7 -11 16 -11 10 0 14 7 12 22 -3 20 -28 39 -28 21z"/>
<path d="M2351 574 c0 -11 3 -14 6 -6 3 7 2 16 -1 19 -3 4 -6 -2 -5 -13z"/>
<path d="M2923 575 c-6 -11 -8 -26 -6 -32 3 -7 -2 -19 -10 -28 -10 -9 -13 -26
-10 -50 4 -33 -8 -48 -22 -25 -4 6 -10 8 -15 5 -5 -3 -18 3 -29 14 -20 20 -20
20 -16 -9 2 -21 0 -27 -10 -24 -17 7 -27 -10 -32 -55 -3 -33 -2 -34 11 -18 9
12 16 14 21 8 10 -17 28 -13 21 5 -4 10 -2 13 6 8 8 -5 9 -2 5 9 -9 24 2 47
23 47 16 0 18 -8 17 -55 -2 -50 -4 -54 -22 -49 -16 4 -17 3 -5 -5 8 -5 17 -9
20 -9 3 -1 17 -5 31 -10 15 -6 31 -7 40 -1 11 7 9 9 -7 9 -19 0 -20 3 -10 35
6 19 18 36 26 39 12 3 11 4 -2 5 -11 1 -15 6 -12 16 4 11 10 12 18 6 8 -7 12
-2 11 17 0 20 4 26 17 24 12 -2 16 2 12 13 -3 8 -17 15 -31 15 -13 0 -22 4
-19 9 3 4 -7 6 -22 3 -26 -5 -26 -5 -9 13 10 10 16 26 14 36 -3 10 0 20 6 22
5 1 8 10 5 17 -4 12 -7 10 -15 -5z m25 -123 c2 -12 -2 -22 -8 -22 -6 0 -8 5
-5 10 3 6 -1 10 -9 10 -9 0 -16 7 -16 16 0 24 35 12 38 -14z"/>
<path d="M556 571 c-3 -4 1 -17 9 -27 8 -10 15 -29 15 -41 0 -23 20 -33 20
-10 0 6 3 23 6 37 4 20 3 22 -5 10 -9 -12 -11 -10 -11 13 0 26 -22 38 -34 18z"/>
<path d="M1903 545 c0 -8 4 -12 9 -9 5 3 6 10 3 15 -9 13 -12 11 -12 -6z"/>
<path d="M1725 529 c-4 -6 -5 -12 -2 -15 2 -3 7 2 10 11 7 17 1 20 -8 4z"/>
<path d="M2770 531 c0 -5 13 -11 30 -13 24 -4 27 -2 19 9 -13 15 -49 18 -49 4z"/>
<path d="M2235 521 c-3 -5 -1 -12 5 -16 5 -3 10 1 10 9 0 18 -6 21 -15 7z"/>
<path d="M2285 519 c-4 -6 -5 -12 -2 -15 2 -3 7 2 10 11 7 17 1 20 -8 4z"/>
<path d="M2306 511 c-3 -5 1 -11 9 -14 9 -4 12 -1 8 9 -6 16 -10 17 -17 5z"/>
<path d="M2358 506 c-19 -14 -25 -32 -8 -21 6 3 10 1 10 -5 0 -6 4 -9 9 -6 5
4 12 0 14 -6 4 -9 6 -8 6 3 1 8 -5 21 -11 28 -11 10 -9 11 6 5 13 -5 17 -4 12
4 -9 15 -17 15 -38 -2z"/>
<path d="M1700 489 c0 -5 -8 -9 -17 -10 -12 -1 -9 -4 7 -8 27 -8 50 -4 50 9 0
4 -9 10 -20 13 -11 3 -20 1 -20 -4z"/>
<path d="M2860 489 c0 -5 5 -7 10 -4 6 3 10 8 10 11 0 2 -4 4 -10 4 -5 0 -10
-5 -10 -11z"/>
<path d="M730 486 c0 -2 8 -10 18 -17 15 -13 16 -12 3 4 -13 16 -21 21 -21 13z"/>
<path d="M841 477 c-1 -11 -6 -15 -13 -11 -7 4 -8 3 -4 -5 4 -6 0 -25 -8 -42
-9 -17 -13 -35 -10 -40 9 -16 24 1 24 27 0 14 5 34 11 45 6 11 8 25 5 32 -2 7
-5 4 -5 -6z"/>
<path d="M2045 480 c6 -9 1 -10 -16 -5 -19 5 -21 4 -9 -4 10 -7 11 -11 3 -11
-7 0 -13 -8 -13 -17 1 -17 1 -17 11 0 6 9 14 15 19 12 4 -3 10 2 14 10 3 8 0
17 -6 21 -7 5 -8 2 -3 -6z"/>
<path d="M2074 475 c1 -8 5 -18 9 -21 4 -4 6 -30 6 -58 -1 -44 -2 -47 -9 -21
-7 28 -15 17 -10 -14 1 -8 -6 -21 -17 -29 -16 -12 -16 -13 9 -8 15 2 30 0 33
-5 4 -5 1 -9 -5 -9 -6 0 -8 -5 -5 -11 5 -6 12 -4 20 8 7 10 12 20 9 24 -2 3
-4 35 -5 71 -1 50 -6 67 -19 76 -14 9 -18 8 -16 -3z"/>
<path d="M1628 468 c9 -9 15 -9 24 0 9 9 7 12 -12 12 -19 0 -21 -3 -12 -12z"/>
<path d="M1945 470 c3 -4 16 -10 30 -12 13 -3 22 -2 20 2 -3 4 -16 10 -30 12
-13 3 -22 2 -20 -2z"/>
<path d="M3017 457 c4 -6 8 -18 8 -26 0 -8 7 -15 16 -16 9 -2 26 -6 38 -10 16
-5 20 -3 15 9 -3 8 -14 13 -24 11 -12 -2 -21 3 -25 15 -3 10 -13 21 -21 24
-10 4 -13 2 -7 -7z"/>
<path d="M1823 453 c20 -2 54 -2 75 0 20 2 3 4 -38 4 -41 0 -58 -2 -37 -4z"/>
<path d="M1647 443 c18 -2 50 -2 70 0 21 2 7 4 -32 4 -38 0 -55 -2 -38 -4z"/>
<path d="M2066 434 c-8 -20 -8 -24 2 -24 4 0 8 9 9 20 2 24 -3 26 -11 4z"/>
<path d="M2220 435 c-11 -13 -10 -14 4 -9 9 3 16 10 16 15 0 13 -6 11 -20 -6z"/>
<path d="M2275 440 c-3 -5 -1 -10 4 -10 6 0 11 5 11 10 0 6 -2 10 -4 10 -3 0
-8 -4 -11 -10z"/>
<path d="M2367 432 c6 -14 4 -15 -8 -5 -13 11 -15 8 -10 -20 3 -19 6 -25 9
-14 2 10 9 14 15 11 7 -4 9 -4 5 1 -4 4 -3 14 2 20 8 9 6 14 -4 18 -11 4 -13
1 -9 -11z"/>
<path d="M1887 434 c-3 -3 -22 -6 -41 -6 -20 0 -36 -5 -36 -11 0 -7 -5 -5 -10
3 -9 13 -10 13 -10 0 0 -13 -1 -13 -10 0 -7 11 -10 11 -10 2 0 -9 -5 -10 -19
-3 -13 8 -22 7 -29 -2 -8 -9 2 -13 44 -15 39 -2 54 1 54 10 0 8 3 9 8 3 6 -10
20 -11 40 -5 4 1 10 2 15 1 4 0 7 5 7 12 0 8 4 7 10 -3 6 -9 10 -10 10 -3 0
14 -15 25 -23 17z"/>
<path d="M1671 404 c0 -11 3 -14 6 -6 3 7 2 16 -1 19 -3 4 -6 -2 -5 -13z"/>
<path d="M605 390 c3 -5 8 -10 11 -10 2 0 4 5 4 10 0 6 -5 10 -11 10 -5 0 -7
-4 -4 -10z"/>
<path d="M1910 392 c0 -6 9 -12 20 -15 11 -3 20 -3 20 -1 0 2 -9 8 -20 14 -11
6 -20 7 -20 2z"/>
<path d="M3020 382 c0 -11 7 -18 20 -18 11 0 20 4 20 8 0 4 -9 12 -20 18 -17
9 -20 8 -20 -8z"/>
<path d="M1689 373 c-6 -7 -7 -13 -2 -13 5 0 17 6 27 13 16 12 17 14 2 14 -9
0 -21 -6 -27 -14z"/>
<path d="M1960 382 c0 -5 10 -19 22 -31 18 -20 23 -22 32 -9 6 8 17 14 24 12
7 -1 8 0 2 3 -7 3 -7 10 2 21 7 10 1 7 -13 -6 -14 -12 -29 -19 -32 -15 -10 10
-8 25 2 18 5 -3 12 -1 16 5 4 6 -6 10 -24 10 -17 0 -31 -4 -31 -8z"/>
<path d="M1778 373 c-16 -2 -28 -8 -28 -13 0 -5 10 -7 22 -5 12 3 37 6 55 7
18 1 33 6 33 10 0 8 -32 8 -82 1z"/>
<path d="M1637 364 c-9 -9 4 -35 14 -28 5 3 9 12 9 20 0 14 -12 19 -23 8z"/>
<path d="M1875 360 c3 -6 -1 -13 -9 -16 -9 -3 -16 -10 -16 -15 0 -6 8 -6 19 0
18 10 31 6 31 -11 0 -5 -4 -7 -9 -3 -5 3 -13 0 -17 -6 -4 -8 -3 -9 4 -5 7 4
12 2 12 -4 0 -6 5 -8 10 -5 6 3 10 0 10 -8 0 -8 7 -20 15 -27 21 -17 19 -30
-5 -30 -19 0 -24 -10 -21 -37 2 -19 -136 -22 -156 -3 -9 8 -13 10 -9 4 3 -7
-1 -15 -10 -18 -23 -9 -34 -7 -34 5 0 6 6 9 14 6 10 -4 14 1 13 14 -1 11 -7
17 -13 15 -21 -8 -24 5 -8 35 8 16 21 29 29 29 8 0 15 7 15 16 0 8 -4 12 -10
9 -5 -3 -10 -2 -10 4 0 5 5 13 10 16 6 3 10 1 10 -5 0 -8 9 -10 28 -5 15 4 35
9 46 11 36 7 29 14 -12 12 -23 -1 -48 4 -56 11 -13 11 -22 9 -50 -8 -18 -12
-39 -28 -46 -36 -7 -8 -15 -13 -19 -11 -3 2 -7 -10 -8 -27 0 -18 1 -26 4 -19
7 18 23 15 23 -5 0 -15 2 -16 10 -3 5 9 5 19 -2 28 -8 9 -8 16 1 25 10 9 11 8
6 -8 -6 -17 -3 -16 15 5 l22 25 -16 -27 c-9 -16 -14 -28 -11 -28 3 0 -1 -13
-10 -30 -9 -16 -18 -30 -21 -30 -3 0 -3 4 1 10 7 11 -52 43 -65 35 -5 -3 -13
2 -18 10 -5 9 -25 20 -45 25 -32 7 -39 5 -52 -13 -8 -12 -15 -31 -16 -42 0
-11 -3 -15 -5 -8 -4 8 -16 10 -35 6 -18 -3 -29 -1 -29 6 0 6 5 11 12 11 9 0 9
3 1 11 -12 12 -103 4 -103 -9 0 -4 -26 -7 -58 -8 -86 0 -225 -15 -242 -25 -8
-4 -10 -9 -5 -10 6 -1 -3 -5 -20 -9 -19 -4 6 -7 65 -6 52 1 110 -3 129 -8 26
-6 32 -5 26 5 -6 9 -3 11 9 6 10 -4 26 -7 37 -7 10 0 19 -4 19 -10 0 -5 -8
-10 -17 -10 -32 0 -94 -21 -88 -30 3 -4 23 -7 45 -6 22 1 40 -1 40 -6 0 -4 12
-8 26 -8 14 0 23 4 19 10 -4 6 -11 7 -17 4 -7 -4 -8 -2 -4 4 4 7 2 12 -5 12
-10 0 -10 3 -1 12 7 7 31 13 55 14 127 6 144 9 140 24 -3 10 -1 9 7 -2 7 -12
24 -18 46 -18 32 0 34 -2 31 -27 -2 -19 -12 -30 -28 -35 -13 -4 2 -5 35 -2 32
3 61 2 65 -3 3 -6 39 -5 86 2 44 7 91 9 105 5 35 -8 99 2 81 14 -11 7 -11 10
0 17 14 9 -50 6 -163 -7 -41 -5 -58 -3 -58 5 0 7 9 9 26 5 17 -4 25 -3 21 3
-8 13 -5 13 168 17 117 3 159 8 190 21 22 10 49 19 60 19 34 2 49 68 19 80
-17 6 -47 -11 -40 -23 2 -3 -12 -5 -32 -5 -21 1 -43 -3 -50 -9 -10 -8 -16 -7
-23 4 -18 28 -4 40 19 17 9 -9 12 -9 12 3 0 8 -12 27 -27 42 -39 37 -136 75
-118 47z m89 -76 c10 -25 -1 -29 -14 -5 -6 12 -7 21 -1 21 5 0 12 -7 15 -16z
m-371 -111 c-6 -14 -33 -26 -33 -13 0 5 4 11 10 15 5 3 6 13 3 22 -6 15 -5 16
9 3 8 -8 13 -20 11 -27z m-170 20 c-7 -2 -19 -2 -25 0 -7 3 -2 5 12 5 14 0 19
-2 13 -5z m532 -3 c-28 -12 -45 -12 -45 0 0 6 15 10 33 9 27 0 29 -2 12 -9z
m-287 -21 c10 -13 8 -15 -11 -15 -14 1 -22 -5 -21 -14 1 -12 -10 -16 -38 -17
-35 -2 -37 0 -23 13 9 9 21 14 29 11 7 -3 21 6 31 19 10 13 19 23 19 22 1 -2
7 -10 14 -19z"/>
<path d="M2266 362 c-4 -7 -5 -12 -2 -12 2 0 11 -3 20 -6 9 -3 16 -1 16 6 0 6
-4 9 -9 6 -5 -4 -11 -1 -13 6 -3 9 -6 9 -12 0z"/>
<path d="M2333 348 c2 -13 8 -31 12 -40 6 -14 2 -18 -16 -19 l-24 -1 25 -7
c14 -4 24 -13 23 -19 -2 -7 2 -12 7 -12 6 0 10 7 10 15 0 8 -3 15 -7 15 -5 0
-9 11 -9 25 -1 15 3 25 12 25 19 0 18 26 -2 34 -28 11 -36 6 -31 -16z m22 2
c3 -5 1 -10 -4 -10 -6 0 -11 5 -11 10 0 6 2 10 4 10 3 0 8 -4 11 -10z"/>
<path d="M2570 366 c0 -2 7 -7 16 -10 8 -3 12 -2 9 4 -6 10 -25 14 -25 6z"/>
<path d="M2940 360 c0 -5 5 -10 11 -10 5 0 7 5 4 10 -3 6 -8 10 -11 10 -2 0
-4 -4 -4 -10z"/>
<path d="M2616 345 c-7 -18 5 -20 23 -2 11 9 12 9 7 0 -5 -9 -2 -11 9 -6 13 5
14 7 3 14 -20 13 -35 11 -42 -6z"/>
<path d="M2550 339 c0 -5 5 -7 10 -4 6 3 10 8 10 11 0 2 -4 4 -10 4 -5 0 -10
-5 -10 -11z"/>
<path d="M2714 342 c5 -8 0 -12 -13 -12 -10 0 -22 -6 -24 -12 -4 -10 -6 -10
-6 0 -1 6 -6 12 -12 12 -6 0 -8 -7 -5 -16 5 -13 3 -14 -6 -7 -7 6 -23 13 -35
16 -18 4 -23 1 -23 -13 0 -10 -2 -24 -3 -32 -2 -7 -2 -10 0 -7 2 4 14 4 26 1
26 -6 66 -32 50 -32 -6 0 -13 -11 -15 -25 -3 -14 -2 -25 1 -25 13 0 35 19 29
25 -3 4 -2 20 2 36 6 20 5 29 -3 29 -7 1 -2 6 11 13 12 7 19 17 15 21 -4 5 3
6 17 2 14 -3 19 -3 12 0 -6 3 -10 10 -7 14 3 5 0 12 -6 16 -8 4 -9 3 -5 -4z"/>
<path d="M3011 338 c0 -9 -4 -25 -7 -35 -5 -17 -5 -17 6 0 6 10 9 25 7 35 -4
15 -5 15 -6 0z"/>
<path d="M3201 334 c0 -11 3 -14 6 -6 3 7 2 16 -1 19 -3 4 -6 -2 -5 -13z"/>
<path d="M2810 320 c-6 -11 -8 -20 -6 -20 3 0 10 9 16 20 6 11 8 20 6 20 -3 0
-10 -9 -16 -20z"/>
<path d="M2301 314 c0 -11 3 -14 6 -6 3 7 2 16 -1 19 -3 4 -6 -2 -5 -13z"/>
<path d="M2461 314 c0 -11 3 -14 6 -6 3 7 2 16 -1 19 -3 4 -6 -2 -5 -13z"/>
<path d="M2010 316 c0 -2 8 -10 18 -17 15 -13 16 -12 3 4 -13 16 -21 21 -21
13z"/>
<path d="M1565 300 c3 -5 8 -10 11 -10 2 0 4 5 4 10 0 6 -5 10 -11 10 -5 0 -7
-4 -4 -10z"/>
<path d="M2416 302 c-3 -5 1 -9 9 -9 8 0 12 4 9 9 -3 4 -7 8 -9 8 -2 0 -6 -4
-9 -8z"/>
<path d="M3177 288 c-10 -10 -15 -24 -11 -30 5 -8 2 -9 -9 -5 -18 7 -22 -8
-11 -37 11 -28 23 -17 39 36 8 28 14 52 12 53 -1 1 -10 -7 -20 -17z"/>
<path d="M2773 278 c-2 -18 0 -20 7 -8 12 18 13 30 2 30 -4 0 -9 -10 -9 -22z"/>
<path d="M2520 270 c0 -11 -5 -20 -11 -20 -5 0 -7 -5 -4 -10 4 -6 10 -8 14 -5
12 7 20 55 10 55 -5 0 -9 -9 -9 -20z"/>
<path d="M2716 268 c-9 -36 -7 -41 10 -27 15 12 16 11 10 -11 l-6 -25 12 23
c9 19 9 25 -1 32 -10 6 -9 10 5 19 18 10 18 10 -2 11 -14 0 -24 -8 -28 -22z"/>
<path d="M2495 270 c3 -5 8 -10 11 -10 2 0 4 5 4 10 0 6 -5 10 -11 10 -5 0 -7
-4 -4 -10z"/>
<path d="M2319 253 c-13 -16 -12 -17 4 -4 16 13 21 21 13 21 -2 0 -10 -8 -17
-17z"/>
<path d="M2417 263 c-13 -13 -7 -32 8 -27 8 4 15 12 15 20 0 15 -12 19 -23 7z"/>
<path d="M2463 264 c17 -5 18 -26 1 -67 -6 -16 -3 -18 17 -15 39 5 52 33 20
43 -10 3 -18 13 -17 22 0 10 -7 18 -19 20 -15 1 -16 1 -2 -3z"/>
<path d="M2798 250 c-7 -24 -3 -38 8 -28 3 4 4 17 2 30 l-3 23 -7 -25z"/>
<path d="M825 250 c3 -5 8 -10 11 -10 2 0 4 5 4 10 0 6 -5 10 -11 10 -5 0 -7
-4 -4 -10z"/>
<path d="M795 240 c-3 -5 1 -10 10 -10 9 0 13 5 10 10 -3 6 -8 10 -10 10 -2 0
-7 -4 -10 -10z"/>
<path d="M3050 235 c0 -8 3 -14 8 -14 19 3 22 -3 12 -22 -9 -16 -8 -24 3 -37
8 -9 12 -23 10 -29 -3 -7 0 -13 6 -13 5 0 11 15 13 33 2 22 8 31 18 30 10 -2
16 5 17 17 2 23 -1 24 -27 10 -16 -8 -18 -8 -14 5 4 10 0 15 -10 15 -9 0 -16
5 -16 10 0 6 -4 10 -10 10 -5 0 -10 -7 -10 -15z"/>
<path d="M3201 241 c-7 -5 -12 -14 -10 -20 2 -6 10 -2 17 9 14 22 13 23 -7 11z"/>
<path d="M2602 215 c0 -16 2 -22 5 -12 2 9 2 23 0 30 -3 6 -5 -1 -5 -18z"/>
<path d="M2854 227 c-8 -9 -7 -16 3 -25 17 -16 33 -7 33 19 0 21 -19 25 -36 6z"/>
<path d="M2902 218 c6 -18 28 -21 28 -4 0 9 -7 16 -16 16 -9 0 -14 -5 -12 -12z"/>
<path d="M2408 190 c-21 -37 -22 -44 -10 -48 6 -2 9 5 8 15 0 10 6 18 14 18 8
0 16 10 18 23 5 31 -10 27 -30 -8z"/>
<path d="M2625 209 c-4 -6 -5 -12 -2 -15 2 -3 7 2 10 11 7 17 1 20 -8 4z"/>
<path d="M2762 211 c-11 -7 -11 -9 0 -14 9 -3 15 1 15 9 0 8 -1 14 -1 14 -1 0
-7 -4 -14 -9z"/>
<path d="M660 166 c0 -39 10 -76 20 -76 4 0 7 24 7 53 -1 37 -5 54 -14 54 -8
0 -13 -13 -13 -31z"/>
<path d="M2180 180 c0 -16 -7 -20 -31 -20 -26 0 -29 3 -20 14 9 11 5 13 -21
10 -54 -7 -73 -15 -57 -25 8 -5 28 -9 44 -10 17 -1 22 -3 13 -6 -28 -7 -21
-21 7 -15 14 2 22 9 19 14 -3 5 0 9 7 7 40 -5 57 2 61 26 4 17 1 25 -8 25 -8
0 -14 -9 -14 -20z"/>
<path d="M2798 193 c6 -2 9 -10 6 -15 -4 -7 -2 -8 4 -4 7 4 12 1 12 -9 0 -9
-5 -13 -10 -10 -6 3 -13 -1 -16 -10 -6 -13 -8 -14 -15 -3 -6 9 -9 9 -9 1 0
-12 30 -33 47 -33 4 0 9 17 10 37 2 35 -9 53 -32 52 -5 0 -4 -3 3 -6z m9 -65
c-3 -8 -6 -5 -6 6 -1 11 2 17 5 13 3 -3 4 -12 1 -19z"/>
<path d="M744 158 c-16 -18 -22 -27 -13 -20 9 6 19 9 22 5 4 -3 7 1 7 9 0 9 6
18 13 21 6 2 9 7 6 11 -3 3 -19 -9 -35 -26z"/>
<path d="M2325 152 c-16 -19 -29 -40 -27 -45 1 -4 -1 -6 -6 -3 -5 3 -24 -11
-43 -30 l-34 -35 52 23 c28 13 49 26 46 30 -2 4 4 5 13 1 11 -4 15 -3 10 5 -6
11 27 36 36 27 3 -3 5 2 5 10 0 8 -4 12 -9 9 -4 -3 -8 0 -8 5 0 6 4 11 10 11
5 0 7 7 4 15 -9 21 -15 18 -49 -23z"/>
<path d="M2732 170 c0 -14 2 -19 5 -12 2 6 2 18 0 25 -3 6 -5 1 -5 -13z"/>
<path d="M3131 169 l-24 -20 21 -6 c12 -3 20 -9 17 -13 -3 -4 3 -11 12 -14 14
-6 15 -9 4 -15 -9 -6 -8 -10 7 -13 16 -5 20 -2 17 14 -3 13 0 18 9 15 7 -3 13
1 13 9 0 7 -4 11 -9 8 -15 -9 -8 13 7 26 13 11 13 15 3 21 -22 14 -52 9 -77
-12z"/>
<path d="M3365 170 c3 -5 8 -10 11 -10 2 0 4 5 4 10 0 6 -5 10 -11 10 -5 0 -7
-4 -4 -10z"/>
<path d="M308 116 c-6 -22 -16 -47 -21 -54 -8 -10 -5 -11 16 -3 56 22 74 39
69 70 -3 22 -9 29 -28 29 -20 0 -26 -8 -36 -42z"/>
<path d="M1482 140 c0 -14 2 -19 5 -12 2 6 2 18 0 25 -3 6 -5 1 -5 -13z"/>
<path d="M2530 149 c0 -13 14 -17 35 -9 17 6 16 7 -8 12 -15 3 -27 2 -27 -3z"/>
<path d="M2860 133 c0 -22 7 -33 26 -42 18 -8 30 -8 39 -1 8 7 27 5 60 -5 27
-8 52 -12 56 -9 4 2 10 0 14 -6 3 -5 16 -10 28 -9 20 1 20 2 -3 9 -25 8 -25 8
-2 9 14 1 21 5 16 12 -3 6 -16 8 -28 5 -15 -4 -28 1 -40 15 -9 11 -24 18 -32
15 -8 -3 -14 -2 -14 3 0 5 -17 11 -37 14 -21 3 -48 9 -60 13 -20 6 -23 3 -23
-23z"/>
<path d="M46 112 c2 -23 14 -57 26 -75 13 -18 24 -34 25 -36 2 -2 6 -1 10 2 3
4 -1 15 -9 24 -9 10 -18 27 -20 38 -1 11 -6 22 -9 25 -3 3 -11 19 -17 35 -10
28 -11 28 -6 -13z"/>
<path d="M151 140 c0 -8 6 -33 14 -55 16 -45 19 -67 6 -46 -7 11 -11 10 -20
-7 -11 -20 -10 -21 19 -11 30 11 36 20 23 33 -5 4 -16 28 -25 54 -9 26 -17 40
-17 32z"/>
<path d="M1278 143 c6 -2 18 -2 25 0 6 3 1 5 -13 5 -14 0 -19 -2 -12 -5z"/>
<path d="M2598 143 c7 -3 16 -2 19 1 4 3 -2 6 -13 5 -11 0 -14 -3 -6 -6z"/>
<path d="M2634 142 c3 -5 25 -12 49 -15 23 -3 52 -9 62 -13 17 -7 18 -6 7 8
-7 9 -21 16 -30 16 -9 -1 -34 2 -55 6 -23 4 -37 4 -33 -2z"/>
<path d="M2034 133 c10 -10 46 -11 40 -1 -3 4 -15 8 -26 8 -12 0 -18 -3 -14
-7z"/>
<path d="M2385 120 c-3 -5 -15 -10 -26 -10 -11 0 -18 -4 -14 -9 3 -6 -4 -15
-16 -22 -13 -6 -33 -22 -46 -35 l-23 -23 37 -6 c21 -4 51 -9 66 -12 26 -5 28
-3 18 15 -6 11 -16 23 -23 26 -7 4 -3 4 10 2 12 -2 22 -2 22 0 0 3 -10 9 -22
15 l-23 10 23 -5 c13 -2 30 3 39 12 16 16 16 16 10 0 -3 -10 -2 -18 3 -18 5 0
11 8 13 17 4 16 5 16 6 0 1 -11 -7 -21 -19 -24 -28 -7 -25 -23 5 -23 15 0 25
6 25 14 0 10 7 12 23 8 l22 -5 -20 23 c-52 61 -75 74 -90 50z"/>
<path d="M620 112 c-8 -4 -16 -13 -17 -19 -4 -17 0 -16 27 7 23 20 19 25 -10
12z"/>
<path d="M940 95 c-41 -13 -70 -25 -65 -26 38 -7 73 -4 93 8 19 11 26 12 38 2
13 -10 20 -8 40 14 l25 27 -28 -1 c-15 0 -62 -11 -103 -24z"/>
<path d="M1118 113 c7 -3 16 -2 19 1 4 3 -2 6 -13 5 -11 0 -14 -3 -6 -6z"/>
<path d="M563 103 c4 -3 2 -12 -4 -19 -8 -9 -5 -11 10 -7 25 6 28 33 4 33 -9
0 -13 -3 -10 -7z"/>
<path d="M1077 102 c-14 -3 -16 -7 -6 -18 6 -8 17 -14 23 -14 6 0 4 4 -4 10
-10 6 -5 9 18 8 18 -1 35 1 38 4 7 7 -46 15 -69 10z"/>
<path d="M1912 94 c-19 -21 12 -31 32 -11 14 13 14 16 0 21 -19 7 -16 8 -32
-10z"/>
<path d="M3225 100 c-4 -6 3 -10 14 -10 25 0 27 6 6 13 -8 4 -17 2 -20 -3z"/>
<path d="M3340 99 c0 -5 5 -7 10 -4 6 3 10 8 10 11 0 2 -4 4 -10 4 -5 0 -10
-5 -10 -11z"/>
<path d="M139 81 c6 -10 7 -22 3 -26 -4 -5 -1 -5 6 -1 9 5 9 12 2 27 -6 10
-13 19 -16 19 -2 0 0 -8 5 -19z"/>
<path d="M528 93 c7 -3 16 -2 19 1 4 3 -2 6 -13 5 -11 0 -14 -3 -6 -6z"/>
<path d="M2603 93 c9 -2 23 -2 30 0 6 3 -1 5 -18 5 -16 0 -22 -2 -12 -5z"/>
<path d="M3279 88 c17 -22 27 -23 35 -2 5 13 4 14 -7 6 -10 -9 -17 -8 -27 1
-12 10 -12 9 -1 -5z"/>
<path d="M3535 92 c-11 -4 -21 -18 -23 -31 -2 -15 0 -21 7 -17 6 4 11 3 11 -2
0 -15 -23 -30 -42 -27 -10 2 -18 -1 -18 -6 0 -23 46 -7 67 24 42 61 41 73 -2
59z"/>
<path d="M2072 67 c-12 -13 -22 -26 -22 -30 0 -4 34 -7 75 -7 l75 0 -27 30
c-32 37 -71 39 -101 7z m61 6 c-7 -2 -19 -2 -25 0 -7 3 -2 5 12 5 14 0 19 -2
13 -5z m14 -29 c-3 -3 -12 -4 -19 -1 -8 3 -5 6 6 6 11 1 17 -2 13 -5z"/>
<path d="M1570 70 c-9 -6 -10 -10 -3 -10 6 0 15 5 18 10 8 12 4 12 -15 0z"/>
<path d="M3158 68 c5 -5 16 -8 23 -6 8 3 3 7 -10 11 -17 4 -21 3 -13 -5z"/>
<path d="M3222 64 c-19 -21 -15 -28 25 -42 41 -14 38 -14 47 13 5 16 1 20 -20
22 -15 0 -29 5 -33 11 -4 6 -11 4 -19 -4z"/>
<path d="M3331 73 c0 -6 -4 -20 -7 -30 -5 -14 -4 -15 5 -7 7 7 11 20 8 30 -3
11 -5 14 -6 7z"/>
<path d="M3450 60 c14 -26 20 -26 13 0 -3 11 -9 20 -15 20 -5 0 -4 -9 2 -20z"/>
<path d="M340 54 c0 -8 5 -12 10 -9 6 3 10 10 10 16 0 5 -4 9 -10 9 -5 0 -10
-7 -10 -16z"/>
<path d="M1168 36 c4 -6 7 -15 7 -21 0 -10 315 -18 341 -8 8 3 14 9 14 15 0 5
-6 6 -12 2 -10 -6 -10 -5 -1 7 11 13 -10 15 -172 15 -126 0 -182 -3 -177 -10z
m175 -13 c-13 -2 -35 -2 -50 0 -16 2 -5 4 22 4 28 0 40 -2 28 -4z"/>
<path d="M2500 39 c0 -7 -7 -17 -15 -23 -12 -9 -9 -11 20 -13 38 -2 40 -1 25
28 -12 21 -30 26 -30 8z"/>
<path d="M2956 41 c-4 -5 -2 -12 3 -15 5 -4 12 -2 15 3 4 5 2 12 -3 15 -5 4
-12 2 -15 -3z"/>
<path d="M450 30 c0 -5 5 -10 10 -10 6 0 10 5 10 10 0 6 -4 10 -10 10 -5 0
-10 -4 -10 -10z"/>
<path d="M468 18 c-14 -14 -15 -18 -4 -18 8 0 17 7 20 16 9 23 4 24 -16 2z"/>
<path d="M530 30 c-9 -6 -10 -10 -3 -10 6 0 15 5 18 10 8 12 4 12 -15 0z"/>
<path d="M820 25 l-55 -12 70 0 c39 0 89 -3 113 -7 27 -6 42 -5 42 2 0 5 -9
12 -20 15 -11 3 -18 1 -15 -3 3 -4 -4 -6 -15 -3 -11 3 -23 9 -26 14 -7 11 -24
10 -94 -6z"/>
<path d="M3100 25 c0 -8 4 -15 8 -15 5 0 9 7 9 15 0 8 -4 15 -9 15 -4 0 -8 -7
-8 -15z"/>
<path d="M3422 28 c-7 -7 -12 -16 -12 -20 0 -12 28 -10 36 3 10 17 -10 31 -24
17z"/>
<path d="M2566 15 c8 -19 14 -19 14 0 0 8 -4 15 -10 15 -5 0 -7 -7 -4 -15z"/>
<path d="M405 10 l-30 -8 27 -1 c15 0 30 4 33 9 3 6 5 9 3 9 -2 -1 -16 -5 -33
-9z"/>
<path d="M3580 10 c0 -5 5 -10 11 -10 5 0 7 5 4 10 -3 6 -8 10 -11 10 -2 0 -4
-4 -4 -10z"/>
<path d="M718 3 c6 -2 18 -2 25 0 6 3 1 5 -13 5 -14 0 -19 -2 -12 -5z"/>
<path d="M2958 3 c6 -2 18 -2 25 0 6 3 1 5 -13 5 -14 0 -19 -2 -12 -5z"/>
</g>
</svg>
